<svg xmlns="http://www.w3.org/2000/svg" viewBox="0 0 30 30.19"><title>icon_Groups</title><g id="Layer_2" data-name="Layer 2"><g id="Layer_1-2" data-name="Layer 1"><rect x="9.73" y="8.91" width="10.55" height="4.72" rx="2.36"/><path d="M15,7.31a3.66,3.66,0,1,0-3.65-3.66A3.66,3.66,0,0,0,15,7.31Z"/><rect y="25.47" width="10.55" height="4.72" rx="2.36"/><path d="M5.27,23.87a3.66,3.66,0,1,0-3.65-3.66A3.66,3.66,0,0,0,5.27,23.87Z"/><rect x="19.45" y="25.47" width="10.55" height="4.72" rx="2.36"/><path d="M21.07,20.21a3.66,3.66,0,1,0,3.65-3.65A3.66,3.66,0,0,0,21.07,20.21Z"/></g></g></svg>