<svg xmlns="http://www.w3.org/2000/svg" viewBox="0 0 25.77 30"><title>icon_UserProfile</title><g id="Layer_2" data-name="Layer 2"><g id="Layer_1-2" data-name="Layer 1"><g id="Group_279" data-name="Group 279"><path id="Path_23" data-name="Path 23" d="M19.26,8.92a6.38,6.38,0,0,1-6.38,6.37l-.57,0a6.59,6.59,0,0,1-5.8-6.68V6.7A6.58,6.58,0,0,1,12.31,0a6.37,6.37,0,0,1,6.92,5.78,5.12,5.12,0,0,1,0,.56Z"/><path id="Path_24" data-name="Path 24" d="M15.36,18.81l-1.57,1.88a1.18,1.18,0,0,1-1.66.14,1,1,0,0,1-.15-.14l-1.57-1.88a2.32,2.32,0,0,0-2.69-.68A13,13,0,0,0,0,28.69,1.18,1.18,0,0,0,1.07,30H24.58a1.19,1.19,0,0,0,1.19-1.19s0-.08,0-.12a13,13,0,0,0-7.71-10.56A2.32,2.32,0,0,0,15.36,18.81Z"/></g></g></g></svg>