<svg xmlns="http://www.w3.org/2000/svg" viewBox="0 0 30 30"><title>icon_Events</title><g id="Layer_2" data-name="Layer 2"><g id="Layer_1-2" data-name="Layer 1"><path d="M30,11.39H26.2V7.59h-3.8V3.8h-3.8V0L0,18.61H3.8v3.8h3.8V26.2h3.8V30ZM8,15.71a.89.89,0,0,1-.62.26.91.91,0,0,1-.63-.26.89.89,0,0,1,0-1.25.88.88,0,0,1,1.25,0H8A.88.88,0,0,1,8,15.71Zm2.51,2.5a.91.91,0,0,1-.63.26A.88.88,0,1,1,10.53,17h0A.89.89,0,0,1,10.54,18.21Zm5,5a.89.89,0,0,1-.62.26.91.91,0,0,1-.63-.26.89.89,0,0,1,0-1.25.88.88,0,0,1,1.25,0h0A.88.88,0,0,1,15.54,23.22Zm-1-14.43,2.58,2.34,3.2-1.39-1.43,3.18,2.31,2.62-3.47-.38-1.78,3-.72-3.42L11.84,14l3-1.73ZM11.79,19.46a.88.88,0,0,1,1.24,0h0a.89.89,0,0,1,0,1.25.91.91,0,0,1-1.25,0A.9.9,0,0,1,11.79,19.46Z"/></g></g></svg>