<svg xmlns="http://www.w3.org/2000/svg" viewBox="0 0 30 30"><title>icon_AroundMe</title><g id="Layer_2" data-name="Layer 2"><g id="Layer_1-2" data-name="Layer 1"><path d="M15,3.89A1.95,1.95,0,1,0,13.05,2,2,2,0,0,0,15,3.89Z"/><path d="M15,26.11A1.95,1.95,0,1,0,17,28.05,2,2,0,0,0,15,26.11Z"/><path d="M2,13.05A2,2,0,1,0,3.89,15,1.95,1.95,0,0,0,2,13.05Z"/><path d="M28.05,13.05A1.95,1.95,0,1,0,30,15,1.94,1.94,0,0,0,28.05,13.05Z"/><circle cx="5.77" cy="5.77" r="1.95"/><circle cx="24.23" cy="24.23" r="1.95"/><circle cx="24.23" cy="5.77" r="1.95"/><path d="M4.39,22.86a1.94,1.94,0,1,0,2.75,0A1.94,1.94,0,0,0,4.39,22.86Z"/><path d="M18.7,17H11.14a2.53,2.53,0,0,0,0,5H18.7a2.53,2.53,0,1,0,0-5Z"/><path d="M14.92,15.22a4.21,4.21,0,1,0-4.2-4.2A4.21,4.21,0,0,0,14.92,15.22Z"/></g></g></svg>